<?xml version="1.0" encoding="UTF-8" standalone="no"?>
<!-- Created with Inkscape (http://www.inkscape.org/) -->

<svg
   width="565.80518"
   height="111.43622"
   viewBox="0 0 565.80518 111.43622"
   version="1.1"
   id="svg1"
   xml:space="preserve"
   xmlns="http://www.w3.org/2000/svg"
   xmlns:svg="http://www.w3.org/2000/svg"><defs
     id="defs1" /><g
     id="layer1"
     transform="translate(-78.124061,-303.7843)"><path
       style="fill:#4a5d73;fill-opacity:1"
       d="m 209.12406,415.00111 c -3.28994,-0.45171 -9.54892,-1.85828 -12.4,-2.78661 -6.62811,-2.15817 -11.86789,-5.373 -17.92538,-10.99797 l -2.72538,-2.53079 5.35398,-5.32319 5.35399,-5.3232 3.55088,2.99734 c 8.65859,7.3088 16.43892,9.82932 28.79191,9.32744 6.12379,-0.2488 8.99706,-0.85505 12.50276,-2.63802 3.24645,-1.65112 5.35744,-3.61197 6.79774,-6.31424 4.18382,-7.84966 1.43359,-18.25331 -5.7005,-21.56403 -2.71021,-1.25773 -5.58414,-1.87824 -16.5602,-3.57552 -13.52141,-2.09087 -18.17045,-3.63821 -23.92248,-7.96209 -4.41391,-3.318 -7.8838,-8.66868 -9.1614,-14.12717 -0.92684,-3.95989 -0.59621,-15.39543 0.53506,-18.50631 5.02761,-13.82534 16.04594,-21.05129 33.30902,-21.84445 10.17503,-0.4675 20.31877,2.48498 29.8,8.67372 3.55469,2.32028 7.79226,5.64632 7.67554,6.0245 -0.0415,0.13463 -2.26018,2.54002 -4.93029,5.34531 l -4.85475,5.10052 -3.94525,-2.83301 c -4.32139,-3.10311 -9.80648,-5.98747 -13.54525,-7.12282 -3.70562,-1.12528 -13.02119,-1.04277 -16.80829,0.14888 -5.12764,1.61346 -9.15928,5.29791 -11.06964,10.11634 -0.67082,1.69199 -0.87798,3.07746 -0.89715,6 -0.0221,3.37122 0.10012,4.05463 1.08327,6.0566 1.33444,2.71733 3.80099,5.0822 6.96834,6.68107 3.12117,1.57557 3.93107,1.7694 15.32347,3.6673 11.79675,1.96526 16.40101,3.14892 20.4787,5.26463 3.57605,1.85543 7.63461,5.41306 9.66517,8.47222 4.63078,6.97656 6.10146,17.87597 3.59536,26.64558 -3.54425,12.40242 -14.99607,20.84334 -30.92874,22.79698 -3.23646,0.39685 -12.87732,0.4788 -15.41049,0.13099 z m -131,-55.51537 v -55 h 43.6 43.6 l 0.002,2.3 c 8.9e-4,1.265 0.11867,4.595 0.26173,7.4 l 0.26011,5.1 H 130.18579 94.52406 v 16.2 16.2 h 30 30 v 7.2 7.2 h -30 -30 v 16.8 16.8 h 35.4 35.4 v 7.4 7.4 h -43.6 -43.6 z m 194,-0.0559 v -55.05585 l 23.7,0.23049 c 25.75635,0.25049 25.98824,0.26951 32.10978,2.63385 4.8132,1.85901 8.05897,3.92483 11.45463,7.29045 2.70371,2.6798 3.35613,3.63484 5.46501,8 2.77203,5.7378 3.18654,7.24782 3.52654,12.84668 0.71746,11.81467 -3.63735,22.11433 -12.04965,28.4989 -3.39965,2.58018 -6.49364,4.15839 -11.00631,5.6142 -3.37728,1.08954 -3.51293,1.09967 -20.3,1.5165 l -16.9,0.41963 v 21.53055 21.5305 h -8 -8 z m 51.6,-3.6908 c 0,-1.09065 -1.56004,-4.75011 -3.00687,-7.05334 -2.409,-3.83494 -8.51965,-8.78616 -17.72263,-14.35995 -4.88144,-2.95644 -13.87028,-7.84005 -14.43052,-7.84005 -0.31215,0 -0.43998,4.35791 -0.43998,15 v 15 h 17.8 c 17.10946,0 17.8,-0.029 17.8,-0.74666 z m 38,3.7387 v -55.00795 l 8.47247,0.10795 8.47247,0.10796 25.22753,38.34593 25.22753,38.34594 0.24308,-18.74594 c 0.13369,-10.31026 0.26869,-27.61093 0.3,-38.44593 l 0.0569,-19.7 h 9.5355 9.5355 l 0.2645,12.06516 c 0.14547,6.63583 0.2645,31.41163 0.2645,55.05731 v 42.99216 l -9.29778,-0.29191 c -5.11377,-0.16056 -9.38877,-0.43554 -9.5,-0.61108 -4.92892,-7.7792 -49.89582,-75.98656 -50.1022,-75.99677 -0.165,-0.008 -0.3,17.26517 -0.3,38.38517 v 38.4 h -9.2 -9.2 z m 101.6,0.008 v -55 h 43.8 43.8 v 7.4 7.4 h -35.6 -35.6 v 16.2 16.2 h 30 30 v 7.2 7.2 h -30 -30 v 16.54302 16.54301 l 2.45868,0.25699 c 1.35227,0.14134 17.28227,0.25698 35.4,0.25698 h 32.94132 l 0.002,3.5 c 10e-4,1.925 0.11829,5.255 0.26033,7.4 l 0.25826,3.9 h -43.86026 -43.86033 z m 101.6,-0.0326 v -55.03261 l 23.9,0.17468 c 20.83978,0.15231 24.28413,0.26347 26.9,0.86813 7.22607,1.67032 13.27445,4.99065 17.47695,9.59418 4.32993,4.74312 6.39071,9.25717 7.60596,16.66049 0.83626,5.09457 0.35467,10.43189 -1.41699,15.70411 -1.45094,4.31777 -3.32894,7.21654 -7.07704,10.92365 -2.34927,2.32359 -3.66977,3.23459 -7.04026,4.85699 -2.28174,1.09834 -4.5495,2.15133 -5.03947,2.33998 -0.85526,0.32931 -0.39444,1.29908 11.53497,24.27471 6.8342,13.16243 12.30537,24.05243 12.15815,24.2 -0.14721,0.14756 -4.38532,0.32795 -9.41801,0.40084 l -9.15036,0.13254 -11.61763,-23.23255 -11.61763,-23.23254 h -10.39932 -10.39932 v 23.2 23.2 h -8.2 -8.2 z m 49.92853,-4.82996 c 2.04368,-0.24543 2.11901,-0.29712 1.88964,-1.29653 -0.13139,-0.57249 -0.94741,-2.49455 -1.81338,-4.27123 -2.5124,-5.1546 -8.30368,-10.27718 -18.60479,-16.45657 -4.30769,-2.58408 -14.36654,-8.11311 -14.76002,-8.11311 -0.13199,0 -0.23998,6.84 -0.23998,15.2 v 15.2 l 15.7,-0.003 c 8.635,-0.002 16.65784,-0.1185 17.82853,-0.25909 z"
       id="path1" /></g></svg>
