<?xml version="1.0" encoding="UTF-8" standalone="no"?>
<!-- Created with Inkscape (http://www.inkscape.org/) -->

<svg
   width="659.88776"
   height="92.929779"
   viewBox="0 0 659.88776 92.929779"
   version="1.1"
   id="svg1"
   xmlns="http://www.w3.org/2000/svg"
   xmlns:svg="http://www.w3.org/2000/svg">
  <defs
     id="defs1" />
  <g
     id="layer1"
     transform="translate(-30.241707,-309.33466)">
    <g
       id="g5"
       style="display:inline"
       transform="matrix(3.985627,0,0,3.985627,-36.37582,-256.75588)">
      <g
         id="g4"
         transform="translate(-2.759927e-8,5.7512467)">
        <path
           style="opacity:1;fill:#4a5d73;fill-opacity:1"
           d="m 52.591943,159.57532 c -3.269147,-0.2258 -6.478302,-0.94527 -9.117965,-2.04416 l -0.807592,-0.3362 0.686695,-1.71466 c 0.377682,-0.94306 0.700501,-1.72907 0.717375,-1.74668 0.01687,-0.0176 0.529112,0.18086 1.138304,0.44106 4.724567,2.01799 10.71612,2.57045 13.659151,1.25947 1.919695,-0.85513 2.338063,-3.15428 0.793801,-4.36234 -0.899372,-0.70357 -1.890608,-0.92639 -6.642311,-1.49313 -4.037962,-0.48162 -5.19441,-0.72507 -6.541552,-1.37712 -1.108474,-0.53654 -2.242466,-1.61305 -2.703749,-2.5667 -0.799037,-1.65193 -0.790378,-3.83859 0.02156,-5.44343 0.876352,-1.73216 2.819073,-2.94901 5.668123,-3.55031 0.934682,-0.19727 1.419142,-0.35723 3.974831,-0.35934 3.149757,-0.003 3.741365,0.19449 6.244167,0.81652 1.223312,0.30402 3.073041,0.89901 3.224292,1.04521 0.06222,0.0601 -1.10028,3.12966 -1.237086,3.26647 -0.01619,0.0162 0.101816,0.0501 -0.488057,-0.18375 -3.097372,-1.22778 -6.462138,-1.76844 -9.356732,-1.50345 -2.200202,0.20141 -3.266319,0.55568 -4.060359,1.34925 -0.991678,0.99108 -0.82665,2.63796 0.345127,3.44416 0.875539,0.60239 1.779951,0.80558 5.630791,1.26508 1.958426,0.23368 3.870337,0.47242 4.248691,0.53053 2.45092,0.37642 4.460383,1.40178 5.436084,2.77384 0.580041,0.81567 0.782248,1.28892 0.974882,2.28161 0.580188,2.98985 -0.562507,5.61385 -2.992023,6.87064 -1.069203,0.5531 -2.268982,0.92461 -3.641436,1.12758 -1.106649,0.16365 -4.091513,0.28469 -5.175007,0.20985 z M 16.714441,147.94481 v -11.27125 h 9.366251 11.350624 v 1.74625 1.74625 h -9.339791 -7.355417 v 3.01625 3.01625 l 6.905625,-1.4e-4 6.905626,-1.5e-4 -0.03151,1.69348 -0.03151,1.69348 h -6.874114 -6.874114 v 3.06916 3.06917 h 7.831667 8.823854 v 1.74625 1.74625 H 26.556945 16.714444 Z m 55.456669,0.049 v -11.22226 l 7.699375,0.0333 c 7.677535,0.0332 7.701615,0.034 8.491395,0.27573 2.49384,0.76329 4.28039,2.55926 4.83339,4.85888 0.23093,0.9603 0.23064,2.8291 -5.8e-4,3.72992 -0.48238,1.87932 -1.6865,3.38727 -3.36016,4.208 -1.64379,0.80607 -1.57737,0.79806 -7.000711,0.84424 -2.663031,0.0227 -6.991615,0.0162 -6.991615,-0.0144 0,-0.0306 -0.01124,-0.71553 -0.007,-1.69511 l 0.0071,-1.63951 7.327838,-0.0314 3.786618,-0.0314 0.72124,-0.37041 c 1.23544,-0.63451 1.8126,-1.78481 1.72094,-3.42992 -0.0789,-1.41598 -0.63492,-2.34081 -1.74501,-2.90246 -0.79601,-0.40274 -1.36327,-0.44096 -6.545178,-0.44096 h -5.021874 v 9.525 9.525 h -1.957917 -1.957917 z m 28.575,0.002 v -11.22062 l 1.99395,0.0288 1.99396,0.0287 7.07191,8.04334 c 3.88955,4.42383 7.11184,8.0592 7.16063,8.07861 0.0488,0.0194 0.0887,-3.61201 0.0887,-8.0698 v -8.10506 h 1.905 1.905 v 11.21833 11.21833 l -1.7198,-0.008 -1.71979,-0.008 -7.40833,-8.47326 -7.40833,-8.47325 -0.0271,8.48086 -0.0271,8.48085 h -1.90437 -1.90437 z m 31.4325,0.002 v -11.21833 h 9.36625 9.36625 v 1.69261 1.69261 l -7.38188,0.0272 -7.38187,0.0272 -0.0281,2.98979 -0.0281,2.98979 h 6.93373 c 3.81355,0 6.94924,0.0177 6.94924,0.0394 0,0.0217 -0.007,0.66391 -0.008,1.6318 l -0.001,1.66257 -7.60828,0.0273 -6.26263,0.0273 v 3.06832 3.06833 h 7.88459 7.88458 v 1.74625 1.74625 h -9.8425 -9.8425 z m 27.6225,-0.005 v -11.22346 l 7.69938,0.0354 c 7.62674,0.0351 7.70736,0.0377 8.54604,0.27512 2.64858,0.74992 4.39959,2.34008 5.09448,4.62651 0.14055,0.46249 0.19007,0.96636 0.18666,1.89947 -0.004,1.09665 -0.0436,1.38307 -0.29012,2.09844 -0.34884,1.01233 -0.81726,1.75041 -1.56564,2.46693 -0.90626,0.86768 -2.01418,1.44883 -3.31859,1.74074 -0.32067,0.0718 -0.58304,0.16941 -0.58304,0.21698 0,0.0476 1.49081,2.05214 3.31292,4.45461 1.82211,2.40247 3.34892,4.42766 3.39291,4.50042 0.0631,0.10431 -0.43396,0.13229 -2.35029,0.13229 h -2.43028 l -3.26451,-4.36562 -3.2645,-4.36563 -2.6805,-0.0283 c -1.47428,-0.0156 -4.73977,-0.0209 -4.7346,-0.0216 0,0 -0.003,-1.70572 -0.004,-1.78658 l -0.0106,-1.60308 h 6.9705 c 4.38604,0 4.96866,-0.11282 6.0264,-1.16697 0.65748,-0.65523 0.87602,-1.31759 0.81545,-2.47153 -0.054,-1.02848 -0.4083,-1.79014 -1.08819,-2.33918 -1.10568,-0.89291 -1.15305,-0.89877 -7.2791,-0.90023 l -5.26521,-0.001 v 9.525 9.525 h -1.95791 -1.95792 z"
           id="path2" />
        <path
           style="display:inline;opacity:1;fill:#4a5d73;fill-opacity:1"
           d="m 132.07303,147.94481 v -11.27125 h 9.3663 11.35069 v 1.74625 1.74625 h -9.33984 -7.35546 v 3.01625 3.01625 l 6.90566,-1.4e-4 6.90567,-1.5e-4 -0.0315,1.69348 -0.0315,1.69348 h -6.87416 -6.87415 v 3.06916 3.06917 h 7.83171 8.8239 v 1.74625 1.74625 h -10.83476 -9.84256 z"
           id="path8" />
      </g>
    </g>
  </g>
</svg>
